<?xml version="1.0" encoding="utf-8"?>
<!-- Generator: Adobe Illustrator 16.2.1, SVG Export Plug-In . SVG Version: 6.00 Build 0)  -->
<!DOCTYPE svg PUBLIC "-//W3C//DTD SVG 1.1//EN" "http://www.w3.org/Graphics/SVG/1.1/DTD/svg11.dtd">
<svg version="1.1" id="Layer_1" xmlns="http://www.w3.org/2000/svg" xmlns:xlink="http://www.w3.org/1999/xlink" x="0px" y="0px"
	 width="917.967px" height="44px" viewBox="0 0 917.967 44" enable-background="new 0 0 917.967 44" xml:space="preserve">
<rect fill="#EDEDED" width="916.879" height="44"/>
<g>
	<path fill="#333333" d="M13.284,19.929c0,1.156-0.395,2.046-1.184,2.668c-0.789,0.623-1.918,0.934-3.387,0.934H7.37v4.492H6.042
		V16.601h2.961C11.856,16.601,13.284,17.71,13.284,19.929z M7.37,22.39h1.195c1.177,0,2.028-0.19,2.555-0.57
		c0.526-0.38,0.789-0.989,0.789-1.828c0-0.755-0.248-1.317-0.742-1.688c-0.495-0.37-1.266-0.555-2.312-0.555H7.37V22.39z"/>
	<path fill="#333333" d="M22.12,24.984c0,1.005-0.365,1.789-1.094,2.352s-1.719,0.844-2.969,0.844c-1.354,0-2.396-0.175-3.125-0.522
		v-1.281c0.469,0.197,0.979,0.354,1.531,0.47c0.552,0.113,1.099,0.172,1.641,0.172c0.885,0,1.552-0.168,2-0.504
		c0.448-0.337,0.672-0.805,0.672-1.402c0-0.396-0.08-0.721-0.238-0.973c-0.159-0.254-0.425-0.486-0.797-0.699
		c-0.373-0.215-0.939-0.457-1.699-0.728c-1.062-0.38-1.822-0.831-2.277-1.352c-0.456-0.521-0.684-1.2-0.684-2.039
		c0-0.88,0.331-1.581,0.992-2.102c0.661-0.521,1.536-0.781,2.625-0.781c1.135,0,2.18,0.208,3.133,0.625l-0.414,1.156
		c-0.943-0.396-1.859-0.594-2.75-0.594c-0.703,0-1.253,0.151-1.648,0.453c-0.396,0.302-0.594,0.722-0.594,1.258
		c0,0.396,0.073,0.72,0.219,0.973s0.392,0.484,0.738,0.695c0.346,0.211,0.876,0.444,1.59,0.699c1.198,0.427,2.022,0.886,2.473,1.375
		C21.894,23.566,22.12,24.203,22.12,24.984z"/>
	<path fill="#333333" d="M31.713,25.398h-1.695v2.625h-1.242v-2.625h-5.555v-1.133l5.422-7.728h1.375v7.68h1.695V25.398z
		 M28.776,24.219v-3.797c0-0.745,0.026-1.586,0.078-2.523h-0.062c-0.25,0.5-0.484,0.914-0.703,1.242l-3.57,5.08h4.257V24.219z"/>
	<path fill="#333333" d="M45.002,19.929c0,1.156-0.395,2.046-1.184,2.668c-0.789,0.623-1.918,0.934-3.387,0.934h-1.344v4.492H37.76
		V16.601h2.961C43.575,16.601,45.002,17.71,45.002,19.929z M39.088,22.39h1.195c1.177,0,2.028-0.19,2.555-0.57
		c0.526-0.38,0.789-0.989,0.789-1.828c0-0.755-0.248-1.317-0.742-1.688c-0.495-0.37-1.266-0.555-2.312-0.555h-1.484L39.088,22.39
		L39.088,22.39z"/>
	<path fill="#333333" d="M51.104,19.304c0.38,0,0.721,0.031,1.023,0.094l-0.18,1.203c-0.354-0.078-0.667-0.117-0.938-0.117
		c-0.693,0-1.285,0.281-1.777,0.844c-0.492,0.563-0.738,1.263-0.738,2.102v4.594h-1.297V19.46h1.07l0.148,1.586h0.062
		c0.317-0.557,0.7-0.987,1.148-1.289C50.075,19.456,50.567,19.304,51.104,19.304z"/>
	<path fill="#333333" d="M61.12,23.734c0,1.396-0.352,2.484-1.055,3.27c-0.703,0.783-1.675,1.176-2.914,1.176
		c-0.766,0-1.445-0.18-2.039-0.539c-0.594-0.358-1.052-0.875-1.375-1.547c-0.323-0.672-0.484-1.459-0.484-2.359
		c0-1.396,0.349-2.482,1.047-3.261c0.698-0.778,1.667-1.168,2.906-1.168c1.198,0,2.149,0.398,2.855,1.195
		C60.767,21.296,61.12,22.375,61.12,23.734z M54.596,23.734c0,1.094,0.219,1.927,0.656,2.5c0.438,0.572,1.081,0.858,1.93,0.858
		s1.493-0.284,1.934-0.854c0.44-0.57,0.66-1.405,0.66-2.504c0-1.09-0.22-1.917-0.66-2.481c-0.44-0.565-1.09-0.848-1.949-0.848
		c-0.849,0-1.49,0.279-1.922,0.836C54.812,21.799,54.596,22.63,54.596,23.734z"/>
</g>
<g>
	<path fill="#333333" d="M94.248,28.023h-1.312l-2.305-7.649c-0.109-0.338-0.232-0.766-0.367-1.281
		c-0.136-0.516-0.206-0.825-0.211-0.93c-0.115,0.688-0.297,1.44-0.547,2.258l-2.234,7.603H85.96l-3.039-11.422h1.406l1.805,7.055
		c0.25,0.988,0.432,1.885,0.547,2.688c0.141-0.953,0.349-1.886,0.625-2.797l2.047-6.946h1.406l2.148,7.008
		c0.25,0.807,0.461,1.719,0.633,2.733c0.099-0.739,0.286-1.641,0.562-2.702l1.797-7.041h1.406L94.248,28.023z"/>
	<path fill="#333333" d="M102.513,28.18c-1.266,0-2.265-0.386-2.996-1.156c-0.732-0.771-1.098-1.842-1.098-3.211
		c0-1.379,0.34-2.477,1.02-3.29s1.592-1.219,2.738-1.219c1.073,0,1.922,0.353,2.547,1.059c0.625,0.706,0.938,1.637,0.938,2.793v0.82
		h-5.898c0.026,1.004,0.28,1.768,0.762,2.289c0.481,0.521,1.16,0.78,2.035,0.78c0.922,0,1.833-0.192,2.734-0.578v1.156
		c-0.458,0.196-0.892,0.34-1.301,0.426C103.584,28.137,103.091,28.18,102.513,28.18z M102.162,20.39
		c-0.688,0-1.236,0.224-1.645,0.672c-0.409,0.448-0.65,1.068-0.723,1.859h4.477c0-0.817-0.183-1.444-0.547-1.879
		C103.359,20.608,102.838,20.39,102.162,20.39z"/>
	<path fill="#333333" d="M113.396,25.688c0,0.797-0.297,1.412-0.891,1.845c-0.594,0.432-1.427,0.647-2.5,0.647
		c-1.136,0-2.021-0.18-2.656-0.539v-1.203c0.411,0.209,0.853,0.373,1.324,0.492c0.471,0.119,0.926,0.18,1.363,0.18
		c0.677,0,1.198-0.107,1.562-0.323c0.364-0.218,0.547-0.546,0.547-0.988c0-0.334-0.145-0.618-0.434-0.854
		c-0.289-0.237-0.853-0.519-1.691-0.84c-0.797-0.297-1.363-0.558-1.699-0.777c-0.336-0.223-0.586-0.473-0.75-0.754
		c-0.164-0.281-0.246-0.617-0.246-1.008c0-0.698,0.284-1.249,0.852-1.652c0.567-0.403,1.346-0.605,2.336-0.605
		c0.922,0,1.823,0.188,2.703,0.562l-0.461,1.055c-0.859-0.354-1.638-0.531-2.336-0.531c-0.615,0-1.078,0.097-1.391,0.289
		c-0.312,0.193-0.469,0.458-0.469,0.797c0,0.229,0.059,0.425,0.176,0.586c0.117,0.162,0.306,0.315,0.566,0.46
		c0.26,0.146,0.76,0.357,1.5,0.634c1.016,0.368,1.702,0.741,2.059,1.116C113.217,24.648,113.396,25.119,113.396,25.688z"/>
	<path fill="#333333" d="M118.271,27.109c0.229,0,0.45-0.019,0.664-0.051c0.213-0.035,0.383-0.069,0.508-0.105v0.992
		c-0.141,0.066-0.348,0.123-0.621,0.168c-0.273,0.043-0.521,0.066-0.738,0.066c-1.656,0-2.484-0.873-2.484-2.617v-5.095h-1.227
		v-0.625l1.227-0.539l0.547-1.828h0.75v1.984h2.484v1.008h-2.484v5.04c0,0.516,0.122,0.911,0.367,1.188
		C117.508,26.971,117.844,27.109,118.271,27.109z"/>
	<path fill="#333333" d="M128.146,28.023L126.576,23c-0.099-0.307-0.284-1.005-0.555-2.094h-0.062
		c-0.208,0.912-0.391,1.615-0.547,2.109l-1.617,5.008h-1.5l-2.336-8.562h1.359c0.552,2.151,0.973,3.79,1.262,4.915
		s0.454,1.883,0.496,2.272h0.062c0.057-0.297,0.149-0.682,0.277-1.151c0.127-0.472,0.238-0.847,0.332-1.121l1.57-4.915h1.406
		l1.531,4.915c0.292,0.896,0.489,1.647,0.594,2.258h0.062c0.021-0.188,0.077-0.477,0.168-0.866c0.091-0.392,0.634-2.492,1.629-6.306
		h1.344l-2.367,8.563h-1.538V28.023z"/>
	<path fill="#333333" d="M140.99,23.734c0,1.396-0.352,2.484-1.055,3.27c-0.703,0.783-1.675,1.176-2.914,1.176
		c-0.766,0-1.445-0.18-2.039-0.539c-0.594-0.358-1.052-0.875-1.375-1.547c-0.323-0.672-0.484-1.459-0.484-2.359
		c0-1.396,0.349-2.482,1.047-3.261c0.698-0.778,1.667-1.168,2.906-1.168c1.198,0,2.149,0.398,2.855,1.195
		C140.637,21.296,140.99,22.375,140.99,23.734z M134.466,23.734c0,1.094,0.219,1.927,0.656,2.5c0.438,0.572,1.081,0.858,1.93,0.858
		c0.849,0,1.493-0.284,1.934-0.854c0.44-0.57,0.66-1.405,0.66-2.504c0-1.09-0.22-1.917-0.66-2.481s-1.09-0.848-1.949-0.848
		c-0.849,0-1.49,0.279-1.922,0.836C134.682,21.799,134.466,22.63,134.466,23.734z"/>
	<path fill="#333333" d="M147.169,19.304c0.38,0,0.721,0.031,1.023,0.094l-0.18,1.203c-0.354-0.078-0.667-0.117-0.938-0.117
		c-0.693,0-1.285,0.281-1.777,0.844c-0.492,0.563-0.738,1.263-0.738,2.102v4.594h-1.297V19.46h1.07l0.148,1.586h0.062
		c0.317-0.557,0.7-0.987,1.148-1.289C146.141,19.456,146.633,19.304,147.169,19.304z"/>
	<path fill="#333333" d="M151.091,28.023h-1.297V15.867h1.297V28.023z"/>
	<path fill="#333333" d="M159.669,26.875h-0.07c-0.599,0.869-1.495,1.305-2.688,1.305c-1.12,0-1.991-0.383-2.613-1.147
		c-0.623-0.767-0.934-1.854-0.934-3.267c0-1.412,0.312-2.508,0.938-3.29c0.626-0.782,1.495-1.172,2.609-1.172
		c1.161,0,2.052,0.422,2.672,1.266h0.102l-0.055-0.617l-0.031-0.602v-3.484h1.297v12.156h-1.055L159.669,26.875z M157.076,27.094
		c0.885,0,1.527-0.24,1.926-0.723c0.398-0.482,0.598-1.26,0.598-2.332v-0.273c0-1.214-0.202-2.08-0.605-2.598
		c-0.404-0.518-1.048-0.777-1.934-0.777c-0.761,0-1.343,0.296-1.746,0.887c-0.404,0.591-0.605,1.426-0.605,2.504
		c0,1.094,0.2,1.919,0.602,2.477C155.711,26.814,156.299,27.094,157.076,27.094z"/>
	<path fill="#333333" d="M170.568,27.109c0.229,0,0.45-0.019,0.664-0.051c0.213-0.035,0.383-0.069,0.508-0.105v0.992
		c-0.141,0.066-0.348,0.123-0.621,0.168c-0.273,0.043-0.52,0.066-0.738,0.066c-1.656,0-2.484-0.873-2.484-2.617v-5.095h-1.227
		v-0.625l1.227-0.539l0.547-1.828h0.75v1.984h2.484v1.008h-2.484v5.04c0,0.516,0.122,0.911,0.367,1.188
		C169.805,26.971,170.141,27.109,170.568,27.109z"/>
	<path fill="#333333" d="M179.31,28.023v-5.541c0-0.698-0.159-1.219-0.477-1.562c-0.318-0.344-0.815-0.516-1.492-0.516
		c-0.901,0-1.559,0.245-1.973,0.734c-0.414,0.49-0.621,1.292-0.621,2.407v4.478h-1.297V15.867h1.297v3.68
		c0,0.443-0.021,0.81-0.062,1.102h0.078c0.255-0.411,0.618-0.735,1.09-0.973c0.471-0.237,1.009-0.355,1.613-0.355
		c1.047,0,1.832,0.249,2.355,0.746c0.523,0.498,0.785,1.288,0.785,2.371v5.585H179.31L179.31,28.023z"/>
	<path fill="#333333" d="M186.888,28.18c-1.266,0-2.265-0.386-2.996-1.156c-0.732-0.771-1.098-1.842-1.098-3.211
		c0-1.379,0.34-2.477,1.02-3.29s1.592-1.219,2.738-1.219c1.073,0,1.922,0.353,2.547,1.059c0.625,0.706,0.938,1.637,0.938,2.793v0.82
		h-5.898c0.026,1.004,0.28,1.768,0.762,2.289c0.481,0.521,1.16,0.78,2.035,0.78c0.922,0,1.833-0.192,2.734-0.578v1.156
		c-0.458,0.196-0.892,0.34-1.301,0.426C187.959,28.137,187.466,28.18,186.888,28.18z M186.537,20.39
		c-0.688,0-1.236,0.224-1.645,0.672c-0.409,0.448-0.65,1.068-0.723,1.859h4.477c0-0.817-0.183-1.444-0.547-1.879
		C187.734,20.608,187.213,20.39,186.537,20.39z"/>
	<path fill="#333333" d="M199.638,23.734c0,1.396-0.352,2.484-1.055,3.27c-0.703,0.783-1.675,1.176-2.914,1.176
		c-0.766,0-1.445-0.18-2.039-0.539c-0.594-0.358-1.052-0.875-1.375-1.547c-0.323-0.672-0.484-1.459-0.484-2.359
		c0-1.396,0.349-2.482,1.047-3.261c0.698-0.778,1.667-1.168,2.906-1.168c1.198,0,2.149,0.398,2.855,1.195
		C199.285,21.296,199.638,22.375,199.638,23.734z M193.115,23.734c0,1.094,0.219,1.927,0.656,2.5
		c0.438,0.572,1.081,0.858,1.93,0.858c0.849,0,1.493-0.284,1.934-0.854c0.44-0.57,0.66-1.405,0.66-2.504
		c0-1.09-0.22-1.917-0.66-2.481c-0.44-0.565-1.09-0.848-1.949-0.848c-0.849,0-1.49,0.279-1.922,0.836
		C193.331,21.799,193.115,22.63,193.115,23.734z"/>
	<path fill="#333333" d="M205.818,19.304c0.38,0,0.721,0.031,1.023,0.094l-0.18,1.203c-0.354-0.078-0.667-0.117-0.938-0.117
		c-0.693,0-1.285,0.281-1.777,0.844c-0.492,0.563-0.738,1.263-0.738,2.102v4.594h-1.297V19.46h1.07l0.148,1.586h0.062
		c0.317-0.557,0.7-0.987,1.148-1.289C204.789,19.456,205.281,19.304,205.818,19.304z"/>
	<path fill="#333333" d="M208.333,17.14c0-0.297,0.073-0.514,0.219-0.652c0.146-0.138,0.328-0.207,0.547-0.207
		c0.208,0,0.388,0.07,0.539,0.211c0.151,0.141,0.227,0.357,0.227,0.648c0,0.292-0.076,0.509-0.227,0.652
		c-0.151,0.144-0.331,0.215-0.539,0.215c-0.219,0-0.401-0.071-0.547-0.215C208.406,17.649,208.333,17.432,208.333,17.14z
		 M209.74,28.023h-1.297V19.46h1.297V28.023z"/>
	<path fill="#333333" d="M216.107,28.18c-1.266,0-2.265-0.386-2.996-1.156c-0.732-0.771-1.098-1.842-1.098-3.211
		c0-1.379,0.34-2.477,1.02-3.29c0.68-0.813,1.592-1.219,2.738-1.219c1.073,0,1.922,0.353,2.547,1.059
		c0.625,0.706,0.938,1.637,0.938,2.793v0.82h-5.898c0.026,1.004,0.28,1.768,0.762,2.289c0.481,0.521,1.16,0.78,2.035,0.78
		c0.922,0,1.833-0.192,2.734-0.578v1.156c-0.458,0.196-0.892,0.34-1.301,0.426C217.178,28.137,216.685,28.18,216.107,28.18z
		 M215.755,20.39c-0.688,0-1.236,0.224-1.645,0.672c-0.409,0.448-0.65,1.068-0.723,1.859h4.477c0-0.817-0.183-1.444-0.547-1.879
		C216.953,20.608,216.432,20.39,215.755,20.39z"/>
	<path fill="#333333" d="M226.99,25.688c0,0.797-0.297,1.412-0.891,1.845c-0.594,0.432-1.427,0.647-2.5,0.647
		c-1.136,0-2.021-0.18-2.656-0.539v-1.203c0.411,0.209,0.853,0.373,1.324,0.492c0.471,0.119,0.926,0.18,1.363,0.18
		c0.677,0,1.198-0.107,1.562-0.323c0.364-0.218,0.547-0.546,0.547-0.988c0-0.334-0.146-0.618-0.434-0.854
		c-0.289-0.237-0.853-0.519-1.691-0.84c-0.797-0.297-1.363-0.558-1.699-0.777c-0.336-0.223-0.586-0.473-0.75-0.754
		s-0.246-0.617-0.246-1.008c0-0.698,0.284-1.249,0.852-1.652c0.567-0.403,1.346-0.605,2.336-0.605c0.922,0,1.823,0.188,2.703,0.562
		l-0.461,1.055c-0.859-0.354-1.638-0.531-2.336-0.531c-0.615,0-1.078,0.097-1.391,0.289c-0.312,0.193-0.469,0.458-0.469,0.797
		c0,0.229,0.059,0.425,0.176,0.586c0.117,0.162,0.306,0.315,0.566,0.46c0.26,0.146,0.76,0.357,1.5,0.634
		c1.016,0.368,1.702,0.741,2.059,1.116C226.811,24.648,226.99,25.119,226.99,25.688z"/>
</g>
<g>
	<path fill="#333333" d="M252.386,28.023h-1.328V16.601h6.367v1.18h-5.039v4.18h4.734v1.18h-4.734V28.023z"/>
	<path fill="#333333" d="M259.315,28.023V16.601h1.328v11.422H259.315z"/>
	<path fill="#333333" d="M265.104,28.023h-1.328V16.601h6.367v1.18h-5.039v4.18h4.734v1.18h-4.734V28.023z"/>
	<path fill="#333333" d="M279.214,28.023l-1.422-3.633h-4.578l-1.406,3.633h-1.344l4.516-11.469h1.117l4.492,11.469H279.214z
		 M277.378,23.195l-1.328-3.541c-0.172-0.448-0.349-0.997-0.531-1.648c-0.115,0.5-0.279,1.05-0.492,1.648l-1.344,3.541H277.378z"/>
	<path fill="#333333" d="M290.331,28.023h-1.266v-8.142c0-0.677,0.021-1.317,0.062-1.922c-0.109,0.109-0.232,0.224-0.367,0.344
		c-0.136,0.12-0.755,0.628-1.859,1.523l-0.688-0.891l3.023-2.336h1.094L290.331,28.023L290.331,28.023z"/>
	<path fill="#333333" d="M296.12,28.023l4.734-10.228h-6.227v-1.195h7.602v1.039l-4.672,10.383H296.12z"/>
</g>
<g>
	<path fill="#333333" d="M338.19,24.984c0,1.005-0.365,1.789-1.094,2.352s-1.719,0.844-2.969,0.844
		c-1.354,0-2.396-0.175-3.125-0.522v-1.281c0.469,0.197,0.979,0.354,1.531,0.47c0.552,0.113,1.099,0.172,1.641,0.172
		c0.885,0,1.552-0.168,2-0.504c0.448-0.337,0.672-0.805,0.672-1.402c0-0.396-0.08-0.721-0.238-0.973
		c-0.159-0.254-0.425-0.486-0.797-0.699c-0.373-0.215-0.939-0.457-1.699-0.728c-1.062-0.38-1.822-0.831-2.277-1.352
		c-0.456-0.521-0.684-1.2-0.684-2.039c0-0.88,0.331-1.581,0.992-2.102c0.661-0.521,1.536-0.781,2.625-0.781
		c1.135,0,2.18,0.208,3.133,0.625l-0.414,1.156c-0.943-0.396-1.859-0.594-2.75-0.594c-0.703,0-1.253,0.151-1.648,0.453
		c-0.396,0.302-0.594,0.722-0.594,1.258c0,0.396,0.073,0.72,0.219,0.973s0.392,0.484,0.738,0.695
		c0.346,0.211,0.876,0.444,1.59,0.699c1.198,0.427,2.022,0.886,2.473,1.375C337.965,23.566,338.19,24.203,338.19,24.984z"/>
	<path fill="#333333" d="M343.097,27.109c0.229,0,0.45-0.019,0.664-0.051c0.213-0.035,0.383-0.069,0.508-0.105v0.992
		c-0.141,0.066-0.348,0.123-0.621,0.168c-0.273,0.043-0.52,0.066-0.738,0.066c-1.656,0-2.484-0.873-2.484-2.617v-5.095h-1.227
		v-0.625l1.227-0.539l0.547-1.828h0.75v1.984h2.484v1.008h-2.484v5.04c0,0.516,0.122,0.911,0.367,1.188
		C342.333,26.971,342.669,27.109,343.097,27.109z"/>
	<path fill="#333333" d="M351.245,28.023l-0.258-1.219h-0.062c-0.427,0.535-0.853,0.898-1.277,1.09
		c-0.425,0.188-0.955,0.285-1.59,0.285c-0.849,0-1.515-0.22-1.996-0.656c-0.482-0.438-0.723-1.062-0.723-1.867
		c0-1.729,1.383-2.637,4.148-2.719l1.453-0.047v-0.532c0-0.672-0.145-1.168-0.434-1.488c-0.289-0.32-0.751-0.48-1.387-0.48
		c-0.714,0-1.521,0.219-2.422,0.656l-0.398-0.992c0.422-0.229,0.884-0.409,1.387-0.539c0.502-0.13,1.006-0.195,1.512-0.195
		c1.021,0,1.777,0.227,2.27,0.68c0.493,0.453,0.738,1.18,0.738,2.18v5.844h-0.961V28.023z M348.315,27.109
		c0.807,0,1.441-0.223,1.902-0.664c0.461-0.443,0.691-1.062,0.691-1.859v-0.773l-1.297,0.056c-1.031,0.036-1.775,0.196-2.23,0.479
		c-0.456,0.283-0.684,0.726-0.684,1.324c0,0.469,0.142,0.825,0.426,1.07C347.408,26.986,347.805,27.109,348.315,27.109z"/>
	<path fill="#333333" d="M358.784,19.304c0.38,0,0.721,0.031,1.023,0.094l-0.18,1.203c-0.354-0.078-0.667-0.117-0.938-0.117
		c-0.693,0-1.285,0.281-1.777,0.844s-0.738,1.263-0.738,2.102v4.594h-1.297V19.46h1.07l0.148,1.586h0.062
		c0.317-0.557,0.7-0.987,1.148-1.289C357.755,19.456,358.248,19.304,358.784,19.304z"/>
	<path fill="#333333" d="M375.729,28.023h-1.312l-2.305-7.649c-0.109-0.338-0.232-0.766-0.367-1.281
		c-0.136-0.516-0.206-0.825-0.211-0.93c-0.115,0.688-0.297,1.44-0.547,2.258l-2.234,7.603h-1.312l-3.039-11.422h1.406l1.805,7.055
		c0.25,0.988,0.432,1.885,0.547,2.688c0.141-0.953,0.349-1.886,0.625-2.797l2.047-6.946h1.406l2.148,7.008
		c0.25,0.807,0.461,1.719,0.633,2.733c0.099-0.739,0.286-1.641,0.562-2.702l1.797-7.041h1.406L375.729,28.023z"/>
	<path fill="#333333" d="M385.644,28.023l-0.259-1.219h-0.061c-0.428,0.535-0.854,0.898-1.278,1.09
		c-0.425,0.188-0.955,0.285-1.59,0.285c-0.849,0-1.515-0.22-1.996-0.656c-0.482-0.438-0.723-1.062-0.723-1.867
		c0-1.729,1.383-2.637,4.147-2.719l1.453-0.047v-0.532c0-0.672-0.145-1.168-0.433-1.488c-0.289-0.32-0.751-0.48-1.387-0.48
		c-0.714,0-1.521,0.219-2.422,0.656l-0.398-0.992c0.422-0.229,0.884-0.409,1.387-0.539c0.502-0.13,1.006-0.195,1.512-0.195
		c1.021,0,1.776,0.227,2.271,0.68c0.492,0.453,0.737,1.18,0.737,2.18v5.844h-0.961V28.023z M382.714,27.109
		c0.807,0,1.441-0.223,1.902-0.664c0.46-0.443,0.691-1.062,0.691-1.859v-0.773l-1.297,0.056c-1.031,0.036-1.775,0.196-2.229,0.479
		c-0.456,0.283-0.684,0.726-0.684,1.324c0,0.469,0.142,0.825,0.426,1.07C381.806,26.986,382.203,27.109,382.714,27.109z"/>
	<path fill="#333333" d="M393.183,19.304c0.38,0,0.722,0.031,1.022,0.094l-0.18,1.203c-0.354-0.078-0.667-0.117-0.938-0.117
		c-0.693,0-1.285,0.281-1.777,0.844s-0.738,1.263-0.738,2.102v4.594h-1.297V19.46h1.07l0.148,1.586h0.062
		c0.317-0.557,0.7-0.987,1.147-1.289C392.154,19.456,392.646,19.304,393.183,19.304z"/>
	<path fill="#333333" d="M401.331,25.688c0,0.797-0.297,1.412-0.891,1.845c-0.594,0.432-1.427,0.647-2.5,0.647
		c-1.136,0-2.021-0.18-2.656-0.539v-1.203c0.411,0.209,0.854,0.373,1.324,0.492s0.926,0.18,1.363,0.18
		c0.677,0,1.197-0.107,1.562-0.323c0.363-0.218,0.547-0.546,0.547-0.988c0-0.334-0.146-0.618-0.435-0.854
		c-0.289-0.237-0.853-0.519-1.69-0.84c-0.797-0.297-1.363-0.558-1.699-0.777c-0.336-0.223-0.586-0.473-0.75-0.754
		s-0.246-0.617-0.246-1.008c0-0.698,0.283-1.249,0.852-1.652c0.566-0.403,1.346-0.605,2.336-0.605c0.922,0,1.823,0.188,2.703,0.562
		l-0.461,1.055c-0.859-0.354-1.639-0.531-2.336-0.531c-0.615,0-1.078,0.097-1.391,0.289c-0.312,0.193-0.469,0.458-0.469,0.797
		c0,0.229,0.059,0.425,0.176,0.586c0.117,0.162,0.306,0.315,0.565,0.46c0.261,0.146,0.761,0.357,1.5,0.634
		c1.017,0.368,1.702,0.741,2.06,1.116C401.152,24.648,401.331,25.119,401.331,25.688z"/>
	<path fill="#333333" d="M410.784,16.437c1.043,0,1.867,0.242,2.477,0.727c0.611,0.485,0.914,1.154,0.914,2.008
		c0,0.562-0.174,1.076-0.522,1.539c-0.349,0.464-0.905,0.886-1.672,1.266c0.927,0.443,1.586,0.908,1.978,1.395
		c0.391,0.485,0.586,1.051,0.586,1.69c0,0.947-0.332,1.705-0.992,2.271c-0.662,0.563-1.568,0.849-2.719,0.849
		c-1.22,0-2.156-0.269-2.812-0.802c-0.656-0.534-0.984-1.291-0.984-2.271c0-1.308,0.797-2.325,2.391-3.054
		c-0.719-0.406-1.233-0.845-1.547-1.316c-0.312-0.471-0.469-0.999-0.469-1.582c0-0.828,0.307-1.488,0.918-1.98
		C408.939,16.683,409.758,16.437,410.784,16.437z M408.315,25.141c0,0.625,0.217,1.111,0.652,1.461
		c0.435,0.35,1.045,0.523,1.832,0.523c0.775,0,1.38-0.184,1.812-0.547c0.433-0.365,0.647-0.865,0.647-1.5
		c0-0.506-0.202-0.955-0.608-1.348c-0.405-0.395-1.114-0.775-2.125-1.146c-0.776,0.333-1.339,0.702-1.688,1.106
		C408.491,24.096,408.315,24.578,408.315,25.141z M410.769,17.492c-0.651,0-1.162,0.156-1.53,0.469
		c-0.371,0.312-0.556,0.729-0.556,1.25c0,0.479,0.153,0.891,0.461,1.234c0.308,0.344,0.875,0.688,1.703,1.031
		c0.745-0.312,1.272-0.648,1.582-1.008c0.31-0.359,0.465-0.778,0.465-1.258c0-0.526-0.188-0.944-0.565-1.254
		C411.95,17.647,411.43,17.492,410.769,17.492z"/>
</g>
<g>
	<path fill="#333333" d="M583.204,19.929c0,1.156-0.396,2.046-1.186,2.668c-0.789,0.623-1.918,0.934-3.387,0.934h-1.344v4.492
		h-1.328V16.601h2.961C581.776,16.601,583.204,17.71,583.204,19.929z M577.29,22.39h1.193c1.178,0,2.029-0.19,2.557-0.57
		c0.525-0.38,0.789-0.989,0.789-1.828c0-0.755-0.248-1.317-0.742-1.688c-0.496-0.37-1.266-0.555-2.312-0.555h-1.484V22.39
		L577.29,22.39z"/>
	<path fill="#333333" d="M592.04,24.984c0,1.005-0.365,1.789-1.094,2.352c-0.73,0.562-1.721,0.844-2.971,0.844
		c-1.354,0-2.395-0.175-3.125-0.522v-1.281c0.471,0.197,0.98,0.354,1.531,0.47c0.553,0.113,1.1,0.172,1.641,0.172
		c0.887,0,1.553-0.168,2-0.504c0.449-0.337,0.674-0.805,0.674-1.402c0-0.396-0.08-0.721-0.238-0.973
		c-0.16-0.254-0.426-0.486-0.797-0.699c-0.373-0.215-0.939-0.457-1.699-0.728c-1.062-0.38-1.822-0.831-2.277-1.352
		c-0.457-0.521-0.684-1.2-0.684-2.039c0-0.88,0.33-1.581,0.992-2.102c0.66-0.521,1.535-0.781,2.625-0.781
		c1.135,0,2.18,0.208,3.133,0.625l-0.414,1.156c-0.943-0.396-1.859-0.594-2.75-0.594c-0.703,0-1.254,0.151-1.648,0.453
		c-0.396,0.302-0.594,0.722-0.594,1.258c0,0.396,0.072,0.72,0.219,0.973s0.393,0.484,0.738,0.695s0.875,0.444,1.59,0.699
		c1.197,0.427,2.021,0.886,2.473,1.375C591.813,23.566,592.04,24.203,592.04,24.984z"/>
	<path fill="#333333" d="M601.631,25.398h-1.695v2.625h-1.24v-2.625h-5.557v-1.133l5.422-7.728h1.375v7.68h1.695V25.398z
		 M598.696,24.219v-3.797c0-0.745,0.025-1.586,0.076-2.523h-0.061c-0.25,0.5-0.484,0.914-0.703,1.242l-3.57,5.08h4.258V24.219z"/>
	<path fill="#333333" d="M607.678,16.601h3.229c1.516,0,2.611,0.227,3.289,0.68c0.676,0.453,1.016,1.169,1.016,2.148
		c0,0.677-0.189,1.236-0.566,1.676c-0.379,0.44-0.93,0.726-1.652,0.855v0.078c1.734,0.297,2.602,1.208,2.602,2.735
		c0,1.021-0.344,1.816-1.035,2.391c-0.689,0.572-1.654,0.859-2.895,0.859h-3.984V16.601H607.678z M609.006,21.492h2.189
		c0.938,0,1.611-0.147,2.021-0.441c0.412-0.294,0.617-0.79,0.617-1.488c0-0.641-0.229-1.103-0.688-1.387
		c-0.459-0.284-1.188-0.426-2.188-0.426h-1.953V21.492L609.006,21.492z M609.006,22.617v4.273h2.383
		c0.922,0,1.617-0.179,2.082-0.535c0.467-0.356,0.699-0.916,0.699-1.676c0-0.709-0.238-1.229-0.715-1.562s-1.201-0.5-2.176-0.5
		L609.006,22.617L609.006,22.617z"/>
	<path fill="#333333" d="M619.071,19.46v5.556c0,0.696,0.158,1.219,0.477,1.562c0.316,0.344,0.814,0.516,1.492,0.516
		c0.895,0,1.551-0.245,1.965-0.733c0.414-0.49,0.621-1.289,0.621-2.398v-4.5h1.297v8.562h-1.07l-0.188-1.147h-0.07
		c-0.266,0.422-0.635,0.744-1.105,0.97c-0.473,0.223-1.01,0.336-1.613,0.336c-1.041,0-1.822-0.248-2.34-0.742
		c-0.52-0.496-0.777-1.287-0.777-2.375V19.46H619.071z"/>
	<path fill="#333333" d="M633.532,28.023v-5.541c0-0.698-0.16-1.219-0.479-1.562c-0.316-0.344-0.814-0.516-1.492-0.516
		c-0.895,0-1.551,0.242-1.969,0.727c-0.416,0.484-0.625,1.284-0.625,2.399v4.492h-1.297V19.46h1.055l0.211,1.172h0.062
		c0.266-0.422,0.639-0.749,1.117-0.98s1.014-0.348,1.602-0.348c1.031,0,1.807,0.249,2.328,0.746
		c0.521,0.498,0.781,1.293,0.781,2.387v5.586H633.532z"/>
	<path fill="#333333" d="M643.321,26.875h-0.07c-0.6,0.869-1.496,1.305-2.689,1.305c-1.119,0-1.99-0.383-2.611-1.147
		c-0.623-0.767-0.936-1.854-0.936-3.267c0-1.412,0.312-2.508,0.939-3.29c0.625-0.782,1.494-1.172,2.607-1.172
		c1.162,0,2.053,0.422,2.672,1.266h0.104l-0.055-0.617l-0.031-0.602v-3.484h1.297v12.156h-1.055L643.321,26.875z M640.725,27.094
		c0.887,0,1.527-0.24,1.928-0.723c0.396-0.482,0.598-1.26,0.598-2.332v-0.273c0-1.214-0.203-2.08-0.605-2.598
		c-0.404-0.518-1.049-0.777-1.934-0.777c-0.762,0-1.344,0.296-1.746,0.887c-0.404,0.591-0.605,1.426-0.605,2.504
		c0,1.094,0.199,1.919,0.602,2.477C639.362,26.814,639.95,27.094,640.725,27.094z"/>
	<path fill="#333333" d="M648.592,28.023h-1.297V15.867h1.297V28.023z"/>
	<path fill="#333333" d="M654.961,28.18c-1.266,0-2.266-0.386-2.996-1.156c-0.732-0.771-1.098-1.842-1.098-3.211
		c0-1.379,0.34-2.477,1.02-3.29s1.592-1.219,2.738-1.219c1.072,0,1.922,0.353,2.547,1.059c0.625,0.706,0.938,1.637,0.938,2.793v0.82
		h-5.898c0.027,1.004,0.281,1.768,0.762,2.289c0.482,0.521,1.16,0.78,2.035,0.78c0.922,0,1.834-0.192,2.734-0.578v1.156
		c-0.457,0.196-0.893,0.34-1.301,0.426C656.032,28.137,655.54,28.18,654.961,28.18z M654.608,20.39
		c-0.688,0-1.234,0.224-1.645,0.672c-0.408,0.448-0.65,1.068-0.723,1.859h4.477c0-0.817-0.182-1.444-0.547-1.879
		C655.807,20.608,655.286,20.39,654.608,20.39z"/>
	<path fill="#333333" d="M673.79,22.203c0,1.885-0.514,3.326-1.535,4.324c-1.023,0.998-2.496,1.496-4.418,1.496h-3.164V16.601h3.5
		c1.775,0,3.156,0.492,4.141,1.477C673.297,19.063,673.79,20.437,673.79,22.203z M672.381,22.25c0-1.489-0.373-2.612-1.121-3.367
		c-0.748-0.755-1.857-1.133-3.332-1.133h-1.93v9.125h1.617c1.584,0,2.773-0.391,3.57-1.168
		C671.983,24.928,672.381,23.775,672.381,22.25z"/>
	<path fill="#333333" d="M679.756,28.18c-1.266,0-2.264-0.386-2.996-1.156c-0.73-0.771-1.098-1.842-1.098-3.211
		c0-1.379,0.34-2.477,1.02-3.29c0.682-0.813,1.592-1.219,2.738-1.219c1.074,0,1.922,0.353,2.547,1.059
		c0.625,0.706,0.939,1.637,0.939,2.793v0.82h-5.898c0.025,1.004,0.279,1.768,0.762,2.289c0.48,0.521,1.16,0.78,2.035,0.78
		c0.922,0,1.832-0.192,2.734-0.578v1.156c-0.459,0.196-0.893,0.34-1.301,0.426C680.829,28.137,680.336,28.18,679.756,28.18z
		 M679.407,20.39c-0.689,0-1.236,0.224-1.646,0.672c-0.408,0.448-0.65,1.068-0.723,1.859h4.477c0-0.817-0.182-1.444-0.547-1.879
		C680.604,20.608,680.083,20.39,679.407,20.39z"/>
	<path fill="#333333" d="M690.381,28.023l-0.258-1.219h-0.062c-0.426,0.535-0.852,0.898-1.275,1.09
		c-0.426,0.188-0.955,0.285-1.59,0.285c-0.85,0-1.516-0.22-1.996-0.656c-0.482-0.438-0.725-1.062-0.725-1.867
		c0-1.729,1.383-2.637,4.148-2.719l1.453-0.047v-0.532c0-0.672-0.145-1.168-0.434-1.488c-0.289-0.32-0.752-0.48-1.387-0.48
		c-0.715,0-1.521,0.219-2.422,0.656l-0.398-0.992c0.422-0.229,0.883-0.409,1.387-0.539c0.502-0.13,1.006-0.195,1.512-0.195
		c1.021,0,1.777,0.227,2.27,0.68c0.494,0.453,0.738,1.18,0.738,2.18v5.844h-0.961V28.023z M687.454,27.109
		c0.807,0,1.439-0.223,1.9-0.664c0.461-0.443,0.691-1.062,0.691-1.859v-0.773l-1.297,0.056c-1.031,0.036-1.775,0.196-2.23,0.479
		s-0.684,0.726-0.684,1.324c0,0.469,0.143,0.825,0.426,1.07C686.545,26.986,686.942,27.109,687.454,27.109z"/>
	<path fill="#333333" d="M695.311,28.023h-1.297V15.867h1.297V28.023z"/>
	<path fill="#333333" d="M703.586,25.688c0,0.797-0.297,1.412-0.891,1.845c-0.596,0.432-1.428,0.647-2.5,0.647
		c-1.137,0-2.021-0.18-2.656-0.539v-1.203c0.41,0.209,0.852,0.373,1.324,0.492c0.471,0.119,0.926,0.18,1.361,0.18
		c0.678,0,1.199-0.107,1.562-0.323c0.363-0.218,0.547-0.546,0.547-0.988c0-0.334-0.145-0.618-0.434-0.854
		c-0.289-0.237-0.854-0.519-1.691-0.84c-0.797-0.297-1.363-0.558-1.699-0.777c-0.336-0.223-0.586-0.473-0.75-0.754
		s-0.246-0.617-0.246-1.008c0-0.698,0.285-1.249,0.854-1.652c0.566-0.403,1.346-0.605,2.336-0.605c0.922,0,1.822,0.188,2.703,0.562
		l-0.461,1.055c-0.859-0.354-1.639-0.531-2.338-0.531c-0.613,0-1.076,0.097-1.391,0.289c-0.311,0.193-0.469,0.458-0.469,0.797
		c0,0.229,0.059,0.425,0.176,0.586c0.117,0.162,0.307,0.315,0.566,0.46c0.26,0.146,0.76,0.357,1.5,0.634
		c1.016,0.368,1.703,0.741,2.059,1.116C703.407,24.648,703.586,25.119,703.586,25.688z"/>
</g>
<g>
	<path fill="#333333" d="M737.84,22.203c0,1.885-0.512,3.326-1.535,4.324c-1.021,0.998-2.496,1.496-4.418,1.496h-3.164V16.601h3.5
		c1.777,0,3.156,0.492,4.143,1.477C737.35,19.063,737.84,20.437,737.84,22.203z M736.434,22.25c0-1.489-0.373-2.612-1.121-3.367
		c-0.748-0.755-1.857-1.133-3.332-1.133h-1.93v9.125h1.617c1.584,0,2.773-0.391,3.57-1.168
		C736.038,24.928,736.434,23.775,736.434,22.25z"/>
	<path fill="#333333" d="M743.811,28.18c-1.266,0-2.266-0.386-2.996-1.156c-0.732-0.771-1.098-1.842-1.098-3.211
		c0-1.379,0.34-2.477,1.02-3.29s1.592-1.219,2.738-1.219c1.072,0,1.922,0.353,2.547,1.059c0.625,0.706,0.938,1.637,0.938,2.793v0.82
		h-5.898c0.025,1.004,0.279,1.768,0.764,2.289c0.479,0.521,1.158,0.78,2.033,0.78c0.924,0,1.832-0.192,2.734-0.578v1.156
		c-0.459,0.196-0.893,0.34-1.301,0.426C744.881,28.137,744.389,28.18,743.811,28.18z M743.459,20.39
		c-0.689,0-1.236,0.224-1.646,0.672c-0.408,0.448-0.648,1.068-0.723,1.859h4.477c0-0.817-0.184-1.444-0.547-1.879
		C744.657,20.608,744.135,20.39,743.459,20.39z"/>
	<path fill="#333333" d="M754.694,25.688c0,0.797-0.297,1.412-0.891,1.845c-0.594,0.432-1.428,0.647-2.5,0.647
		c-1.137,0-2.021-0.18-2.656-0.539v-1.203c0.41,0.209,0.852,0.373,1.324,0.492c0.471,0.119,0.926,0.18,1.363,0.18
		c0.676,0,1.197-0.107,1.561-0.323c0.363-0.218,0.547-0.546,0.547-0.988c0-0.334-0.145-0.618-0.434-0.854
		c-0.289-0.237-0.854-0.519-1.691-0.84c-0.797-0.297-1.361-0.558-1.697-0.777c-0.336-0.223-0.586-0.473-0.75-0.754
		s-0.246-0.617-0.246-1.008c0-0.698,0.283-1.249,0.852-1.652c0.566-0.403,1.346-0.605,2.336-0.605c0.922,0,1.822,0.188,2.703,0.562
		l-0.461,1.055c-0.859-0.354-1.639-0.531-2.336-0.531c-0.615,0-1.078,0.097-1.391,0.289c-0.312,0.193-0.471,0.458-0.471,0.797
		c0,0.229,0.061,0.425,0.178,0.586c0.117,0.162,0.305,0.315,0.564,0.46c0.262,0.146,0.762,0.357,1.5,0.634
		c1.018,0.368,1.701,0.741,2.061,1.116C754.514,24.648,754.694,25.119,754.694,25.688z"/>
	<path fill="#333333" d="M759.569,27.109c0.229,0,0.449-0.019,0.664-0.051c0.213-0.035,0.383-0.069,0.508-0.105v0.992
		c-0.141,0.066-0.348,0.123-0.621,0.168c-0.273,0.043-0.52,0.066-0.738,0.066c-1.656,0-2.484-0.873-2.484-2.617v-5.095h-1.227
		v-0.625l1.227-0.539l0.549-1.828h0.75v1.984h2.482v1.008h-2.482v5.04c0,0.516,0.119,0.911,0.365,1.188
		C758.805,26.971,759.141,27.109,759.569,27.109z"/>
	<path fill="#333333" d="M762.342,17.14c0-0.297,0.072-0.514,0.219-0.652c0.145-0.138,0.328-0.207,0.547-0.207
		c0.207,0,0.387,0.07,0.539,0.211c0.15,0.141,0.227,0.357,0.227,0.648c0,0.292-0.076,0.509-0.227,0.652
		c-0.152,0.144-0.332,0.215-0.539,0.215c-0.219,0-0.402-0.071-0.547-0.215C762.415,17.649,762.342,17.432,762.342,17.14z
		 M763.749,28.023h-1.297V19.46h1.297V28.023z"/>
	<path fill="#333333" d="M772.358,28.023v-5.541c0-0.698-0.16-1.219-0.477-1.562c-0.318-0.344-0.816-0.516-1.492-0.516
		c-0.896,0-1.553,0.242-1.969,0.727c-0.418,0.484-0.625,1.284-0.625,2.399v4.492h-1.297V19.46h1.055l0.211,1.172h0.062
		c0.266-0.422,0.637-0.749,1.117-0.98c0.479-0.231,1.012-0.348,1.602-0.348c1.031,0,1.807,0.249,2.328,0.746
		c0.52,0.498,0.781,1.293,0.781,2.387v5.586H772.358z"/>
	<path fill="#333333" d="M774.959,19.46h1.391l1.875,4.883c0.41,1.114,0.666,1.919,0.766,2.414h0.062
		c0.066-0.266,0.209-0.721,0.426-1.362c0.215-0.645,0.922-2.623,2.121-5.935h1.391l-3.68,9.75c-0.365,0.963-0.791,1.646-1.277,2.051
		c-0.488,0.402-1.086,0.605-1.793,0.605c-0.396,0-0.787-0.046-1.172-0.134v-1.039c0.285,0.062,0.605,0.095,0.961,0.095
		c0.891,0,1.525-0.5,1.906-1.5l0.477-1.22L774.959,19.46z"/>
	<path fill="#333333" d="M794.061,25.688c0,0.797-0.297,1.412-0.891,1.845c-0.594,0.432-1.428,0.647-2.5,0.647
		c-1.137,0-2.021-0.18-2.656-0.539v-1.203c0.41,0.209,0.852,0.373,1.324,0.492c0.471,0.119,0.926,0.18,1.363,0.18
		c0.676,0,1.195-0.107,1.561-0.323c0.363-0.218,0.547-0.546,0.547-0.988c0-0.334-0.145-0.618-0.434-0.854
		c-0.289-0.237-0.854-0.519-1.691-0.84c-0.797-0.297-1.361-0.558-1.697-0.777c-0.338-0.223-0.588-0.473-0.75-0.754
		c-0.164-0.281-0.246-0.617-0.246-1.008c0-0.698,0.281-1.249,0.852-1.652c0.566-0.403,1.346-0.605,2.336-0.605
		c0.922,0,1.822,0.188,2.703,0.562l-0.461,1.055c-0.859-0.354-1.639-0.531-2.336-0.531c-0.615,0-1.078,0.097-1.391,0.289
		c-0.312,0.193-0.471,0.458-0.471,0.797c0,0.229,0.061,0.425,0.178,0.586c0.115,0.162,0.305,0.315,0.564,0.46
		c0.26,0.146,0.76,0.357,1.5,0.634c1.016,0.368,1.701,0.741,2.061,1.116C793.881,24.648,794.061,25.119,794.061,25.688z"/>
	<path fill="#333333" d="M796.061,17.14c0-0.297,0.072-0.514,0.219-0.652c0.145-0.138,0.328-0.207,0.547-0.207
		c0.207,0,0.387,0.07,0.539,0.211c0.15,0.141,0.227,0.357,0.227,0.648c0,0.292-0.076,0.509-0.227,0.652
		c-0.152,0.144-0.332,0.215-0.539,0.215c-0.219,0-0.402-0.071-0.547-0.215C796.133,17.649,796.061,17.432,796.061,17.14z
		 M797.467,28.023h-1.297V19.46h1.297V28.023z"/>
	<path fill="#333333" d="M802.092,28.023l-3.25-8.563h1.391l1.844,5.079c0.416,1.188,0.66,1.958,0.734,2.312h0.062
		c0.057-0.276,0.238-0.849,0.543-1.716c0.305-0.866,0.988-2.759,2.051-5.676h1.391l-3.25,8.563H802.092z"/>
	<path fill="#333333" d="M813.499,28.023l-0.258-1.219h-0.062c-0.428,0.535-0.854,0.898-1.277,1.09
		c-0.426,0.188-0.955,0.285-1.59,0.285c-0.85,0-1.516-0.22-1.996-0.656c-0.482-0.438-0.723-1.062-0.723-1.867
		c0-1.729,1.383-2.637,4.148-2.719l1.451-0.047v-0.532c0-0.672-0.145-1.168-0.434-1.488c-0.289-0.32-0.752-0.48-1.387-0.48
		c-0.715,0-1.521,0.219-2.422,0.656l-0.398-0.992c0.422-0.229,0.883-0.409,1.387-0.539c0.502-0.13,1.006-0.195,1.514-0.195
		c1.02,0,1.775,0.227,2.27,0.68c0.492,0.453,0.738,1.18,0.738,2.18v5.844h-0.961V28.023z M810.569,27.109
		c0.807,0,1.441-0.223,1.902-0.664c0.461-0.443,0.691-1.062,0.691-1.859v-0.773l-1.297,0.056c-1.031,0.036-1.775,0.196-2.23,0.479
		c-0.457,0.283-0.684,0.726-0.684,1.324c0,0.469,0.141,0.825,0.426,1.07C809.661,26.986,810.057,27.109,810.569,27.109z"/>
	<path fill="#333333" d="M824.709,28.18c-1.24,0-2.199-0.382-2.879-1.145c-0.682-0.764-1.021-1.844-1.021-3.238
		c0-1.433,0.344-2.54,1.035-3.321c0.689-0.781,1.672-1.172,2.949-1.172c0.41,0,0.822,0.044,1.234,0.133
		c0.41,0.089,0.734,0.193,0.969,0.312l-0.398,1.102c-0.287-0.114-0.6-0.209-0.938-0.285c-0.34-0.075-0.639-0.113-0.898-0.113
		c-1.74,0-2.609,1.109-2.609,3.329c0,1.052,0.211,1.858,0.639,2.422c0.424,0.562,1.053,0.844,1.887,0.844
		c0.713,0,1.445-0.153,2.195-0.461v1.147C826.299,28.031,825.579,28.18,824.709,28.18z"/>
	<path fill="#333333" d="M830.202,28.023h-1.297V15.867h1.297V28.023z"/>
	<path fill="#333333" d="M834.17,19.46v5.556c0,0.696,0.158,1.219,0.477,1.562c0.316,0.344,0.814,0.516,1.492,0.516
		c0.895,0,1.551-0.245,1.965-0.733c0.414-0.49,0.621-1.289,0.621-2.398v-4.5h1.297v8.562h-1.07l-0.188-1.147h-0.07
		c-0.266,0.422-0.635,0.744-1.105,0.97c-0.473,0.223-1.01,0.336-1.613,0.336c-1.043,0-1.82-0.248-2.34-0.742
		c-0.52-0.496-0.777-1.287-0.777-2.375V19.46H834.17z"/>
	<path fill="#333333" d="M848.295,25.688c0,0.797-0.297,1.412-0.891,1.845c-0.596,0.432-1.43,0.647-2.5,0.647
		c-1.139,0-2.021-0.18-2.656-0.539v-1.203c0.41,0.209,0.852,0.373,1.324,0.492c0.471,0.119,0.926,0.18,1.361,0.18
		c0.676,0,1.197-0.107,1.562-0.323c0.363-0.218,0.547-0.546,0.547-0.988c0-0.334-0.145-0.618-0.434-0.854
		c-0.289-0.237-0.854-0.519-1.691-0.84c-0.797-0.297-1.363-0.558-1.699-0.777c-0.336-0.223-0.586-0.473-0.75-0.754
		s-0.246-0.617-0.246-1.008c0-0.698,0.283-1.249,0.854-1.652c0.564-0.403,1.346-0.605,2.336-0.605c0.922,0,1.82,0.188,2.703,0.562
		l-0.461,1.055c-0.859-0.354-1.641-0.531-2.338-0.531c-0.613,0-1.076,0.097-1.391,0.289c-0.311,0.193-0.469,0.458-0.469,0.797
		c0,0.229,0.059,0.425,0.176,0.586c0.117,0.162,0.305,0.315,0.566,0.46c0.26,0.146,0.76,0.357,1.5,0.634
		c1.016,0.368,1.701,0.741,2.059,1.116C848.116,24.648,848.295,25.119,848.295,25.688z"/>
	<path fill="#333333" d="M853.17,27.109c0.229,0,0.449-0.019,0.664-0.051c0.213-0.035,0.383-0.069,0.508-0.105v0.992
		c-0.141,0.066-0.348,0.123-0.621,0.168c-0.273,0.043-0.52,0.066-0.738,0.066c-1.656,0-2.484-0.873-2.484-2.617v-5.095h-1.227
		v-0.625l1.227-0.539l0.547-1.828h0.75v1.984h2.484v1.008h-2.484v5.04c0,0.516,0.121,0.911,0.367,1.188
		C852.407,26.971,852.743,27.109,853.17,27.109z"/>
	<path fill="#333333" d="M859.67,28.18c-1.266,0-2.266-0.386-2.996-1.156c-0.732-0.771-1.098-1.842-1.098-3.211
		c0-1.379,0.34-2.477,1.02-3.29s1.592-1.219,2.738-1.219c1.072,0,1.922,0.353,2.547,1.059c0.625,0.706,0.938,1.637,0.938,2.793v0.82
		h-5.898c0.025,1.004,0.279,1.768,0.762,2.289c0.48,0.521,1.16,0.78,2.035,0.78c0.922,0,1.832-0.192,2.734-0.578v1.156
		c-0.459,0.196-0.893,0.34-1.301,0.426C860.741,28.137,860.249,28.18,859.67,28.18z M859.319,20.39
		c-0.688,0-1.236,0.224-1.645,0.672c-0.41,0.448-0.65,1.068-0.723,1.859h4.477c0-0.817-0.184-1.444-0.547-1.879
		C860.516,20.608,859.995,20.39,859.319,20.39z"/>
	<path fill="#333333" d="M868.936,19.304c0.379,0,0.721,0.031,1.023,0.094l-0.18,1.203c-0.355-0.078-0.668-0.117-0.939-0.117
		c-0.693,0-1.285,0.281-1.777,0.844c-0.49,0.563-0.736,1.263-0.736,2.102v4.594h-1.297V19.46h1.068l0.148,1.586h0.062
		c0.316-0.557,0.699-0.987,1.148-1.289C867.907,19.456,868.399,19.304,868.936,19.304z"/>
	<path fill="#333333" d="M877.084,25.688c0,0.797-0.297,1.412-0.893,1.845c-0.594,0.432-1.428,0.647-2.5,0.647
		c-1.137,0-2.02-0.18-2.654-0.539v-1.203c0.41,0.209,0.852,0.373,1.322,0.492c0.473,0.119,0.928,0.18,1.363,0.18
		c0.676,0,1.197-0.107,1.562-0.323c0.363-0.218,0.547-0.546,0.547-0.988c0-0.334-0.145-0.618-0.434-0.854
		c-0.289-0.237-0.854-0.519-1.691-0.84c-0.797-0.297-1.363-0.558-1.699-0.777c-0.336-0.223-0.586-0.473-0.75-0.754
		s-0.246-0.617-0.246-1.008c0-0.698,0.283-1.249,0.854-1.652c0.564-0.403,1.346-0.605,2.336-0.605c0.922,0,1.82,0.188,2.703,0.562
		l-0.463,1.055c-0.857-0.354-1.639-0.531-2.336-0.531c-0.613,0-1.076,0.097-1.391,0.289c-0.311,0.193-0.469,0.458-0.469,0.797
		c0,0.229,0.059,0.425,0.176,0.586c0.117,0.162,0.305,0.315,0.566,0.46c0.26,0.146,0.76,0.357,1.5,0.634
		c1.016,0.368,1.701,0.741,2.059,1.116C876.905,24.648,877.084,25.119,877.084,25.688z"/>
</g>
<g>
	<path fill="#333333" d="M451.78,20.406c0,1.156-0.395,2.046-1.184,2.668c-0.789,0.623-1.918,0.934-3.387,0.934h-1.344V28.5h-1.328
		V17.078h2.961C450.353,17.078,451.78,18.188,451.78,20.406z M445.866,22.867h1.195c1.177,0,2.028-0.189,2.555-0.57
		c0.526-0.38,0.789-0.989,0.789-1.828c0-0.755-0.247-1.317-0.742-1.688c-0.495-0.37-1.266-0.555-2.312-0.555h-1.484V22.867z"/>
	<path fill="#333333" d="M455.272,28.5h-1.297V16.344h1.297V28.5z"/>
	<path fill="#333333" d="M463.288,28.5l-0.258-1.219h-0.062c-0.427,0.537-0.853,0.9-1.277,1.09s-0.954,0.285-1.59,0.285
		c-0.849,0-1.515-0.219-1.996-0.656s-0.723-1.06-0.723-1.867c0-1.729,1.383-2.635,4.148-2.719l1.453-0.047v-0.531
		c0-0.672-0.145-1.168-0.434-1.488s-0.751-0.48-1.387-0.48c-0.714,0-1.521,0.219-2.422,0.656l-0.398-0.992
		c0.422-0.229,0.884-0.409,1.387-0.539c0.503-0.13,1.007-0.195,1.512-0.195c1.021,0,1.777,0.227,2.27,0.68s0.738,1.18,0.738,2.18
		V28.5H463.288z M460.358,27.586c0.808,0,1.441-0.221,1.902-0.664c0.461-0.442,0.691-1.062,0.691-1.859v-0.773l-1.297,0.055
		c-1.031,0.037-1.774,0.197-2.23,0.48c-0.456,0.284-0.684,0.726-0.684,1.324c0,0.469,0.142,0.826,0.426,1.07
		C459.451,27.464,459.847,27.586,460.358,27.586z"/>
	<path fill="#333333" d="M465.561,19.938h1.391l1.875,4.883c0.411,1.115,0.667,1.92,0.766,2.414h0.062
		c0.067-0.266,0.21-0.72,0.426-1.363c0.216-0.643,0.923-2.621,2.121-5.934h1.391l-3.68,9.75c-0.364,0.963-0.79,1.646-1.277,2.051
		c-0.487,0.403-1.085,0.605-1.793,0.605c-0.396,0-0.786-0.044-1.172-0.133v-1.039c0.286,0.062,0.606,0.094,0.961,0.094
		c0.891,0,1.526-0.5,1.906-1.5l0.477-1.219L465.561,19.938z"/>
	<path fill="#333333" d="M480.506,26.164c0,0.797-0.297,1.412-0.891,1.844c-0.594,0.433-1.427,0.648-2.5,0.648
		c-1.136,0-2.021-0.18-2.656-0.539v-1.203c0.411,0.209,0.853,0.373,1.324,0.492c0.472,0.12,0.926,0.18,1.363,0.18
		c0.677,0,1.198-0.107,1.562-0.324c0.364-0.216,0.547-0.545,0.547-0.988c0-0.333-0.145-0.618-0.434-0.855
		c-0.289-0.236-0.853-0.517-1.691-0.84c-0.797-0.297-1.363-0.556-1.699-0.777c-0.336-0.221-0.586-0.473-0.75-0.754
		s-0.246-0.617-0.246-1.008c0-0.698,0.284-1.249,0.852-1.652c0.567-0.403,1.347-0.605,2.336-0.605c0.922,0,1.823,0.188,2.703,0.562
		l-0.461,1.055c-0.859-0.354-1.638-0.531-2.336-0.531c-0.614,0-1.078,0.097-1.391,0.289c-0.312,0.193-0.469,0.458-0.469,0.797
		c0,0.229,0.059,0.425,0.176,0.586c0.117,0.162,0.306,0.315,0.566,0.461c0.261,0.146,0.761,0.357,1.5,0.633
		c1.016,0.37,1.702,0.742,2.059,1.117S480.506,25.597,480.506,26.164z"/>
	<path fill="#333333" d="M485.381,27.586c0.229,0,0.45-0.017,0.664-0.051c0.214-0.033,0.383-0.068,0.508-0.105v0.992
		c-0.141,0.068-0.348,0.123-0.621,0.168c-0.273,0.044-0.52,0.066-0.738,0.066c-1.656,0-2.484-0.872-2.484-2.617v-5.094h-1.227V20.32
		l1.227-0.539l0.547-1.828h0.75v1.984h2.484v1.008h-2.484v5.039c0,0.516,0.122,0.912,0.367,1.188
		C484.619,27.448,484.955,27.586,485.381,27.586z"/>
	<path fill="#333333" d="M493.53,28.5l-0.258-1.219h-0.062c-0.427,0.537-0.853,0.9-1.277,1.09s-0.954,0.285-1.59,0.285
		c-0.849,0-1.515-0.219-1.996-0.656s-0.723-1.06-0.723-1.867c0-1.729,1.383-2.635,4.148-2.719l1.453-0.047v-0.531
		c0-0.672-0.145-1.168-0.434-1.488s-0.751-0.48-1.387-0.48c-0.714,0-1.521,0.219-2.422,0.656l-0.398-0.992
		c0.422-0.229,0.884-0.409,1.387-0.539c0.503-0.13,1.007-0.195,1.512-0.195c1.021,0,1.777,0.227,2.27,0.68s0.738,1.18,0.738,2.18
		V28.5H493.53z M490.6,27.586c0.808,0,1.441-0.221,1.902-0.664c0.461-0.442,0.691-1.062,0.691-1.859v-0.773l-1.297,0.055
		c-1.031,0.037-1.774,0.197-2.23,0.48c-0.456,0.284-0.684,0.726-0.684,1.324c0,0.469,0.142,0.826,0.426,1.07
		C489.693,27.464,490.089,27.586,490.6,27.586z"/>
	<path fill="#333333" d="M499.928,27.586c0.229,0,0.45-0.017,0.664-0.051c0.214-0.033,0.383-0.068,0.508-0.105v0.992
		c-0.141,0.068-0.348,0.123-0.621,0.168c-0.273,0.044-0.52,0.066-0.738,0.066c-1.656,0-2.484-0.872-2.484-2.617v-5.094h-1.227V20.32
		l1.227-0.539l0.547-1.828h0.75v1.984h2.484v1.008h-2.484v5.039c0,0.516,0.122,0.912,0.367,1.188
		C499.166,27.448,499.501,27.586,499.928,27.586z"/>
	<path fill="#333333" d="M502.702,17.617c0-0.297,0.073-0.514,0.219-0.652c0.146-0.138,0.328-0.207,0.547-0.207
		c0.208,0,0.388,0.07,0.539,0.211s0.227,0.357,0.227,0.648c0,0.292-0.075,0.509-0.227,0.652c-0.151,0.144-0.331,0.215-0.539,0.215
		c-0.219,0-0.401-0.071-0.547-0.215C502.775,18.126,502.702,17.909,502.702,17.617z M504.108,28.5h-1.297v-8.562h1.297V28.5z"/>
	<path fill="#333333" d="M514.249,24.211c0,1.396-0.352,2.486-1.055,3.27c-0.703,0.784-1.675,1.176-2.914,1.176
		c-0.766,0-1.445-0.18-2.039-0.539s-1.052-0.875-1.375-1.547s-0.484-1.458-0.484-2.359c0-1.396,0.349-2.483,1.047-3.262
		c0.698-0.778,1.667-1.168,2.906-1.168c1.198,0,2.149,0.398,2.855,1.195S514.249,22.852,514.249,24.211z M507.725,24.211
		c0,1.094,0.219,1.928,0.656,2.5c0.438,0.573,1.081,0.859,1.93,0.859s1.493-0.285,1.934-0.855s0.66-1.404,0.66-2.504
		c0-1.088-0.22-1.915-0.66-2.48c-0.44-0.565-1.09-0.848-1.949-0.848c-0.849,0-1.489,0.279-1.922,0.836
		C507.941,22.276,507.725,23.107,507.725,24.211z"/>
	<path fill="#333333" d="M522.381,28.5v-5.539c0-0.698-0.159-1.219-0.477-1.562s-0.815-0.516-1.492-0.516
		c-0.896,0-1.552,0.242-1.969,0.727s-0.625,1.284-0.625,2.398V28.5h-1.297v-8.562h1.055l0.211,1.172h0.062
		c0.266-0.422,0.638-0.749,1.117-0.98c0.479-0.231,1.013-0.348,1.602-0.348c1.031,0,1.808,0.249,2.328,0.746
		c0.521,0.498,0.781,1.293,0.781,2.387V28.5H522.381z"/>
	<path fill="#333333" d="M537.217,17.078h1.43L534.53,28.5h-1.312l-4.094-11.422h1.406l2.625,7.391
		c0.302,0.85,0.542,1.675,0.719,2.477c0.188-0.844,0.433-1.685,0.734-2.523L537.217,17.078z"/>
	<path fill="#333333" d="M541.545,23.75v4.75h-1.328V17.078h3.133c1.401,0,2.437,0.269,3.105,0.805
		c0.669,0.537,1.004,1.344,1.004,2.422c0,1.511-0.766,2.531-2.297,3.062l3.102,5.133h-1.57l-2.766-4.75H541.545z M541.545,22.609
		h1.82c0.938,0,1.625-0.186,2.062-0.559c0.438-0.372,0.656-0.931,0.656-1.676c0-0.755-0.223-1.299-0.668-1.633
		c-0.445-0.333-1.16-0.5-2.145-0.5h-1.727V22.609z"/>
</g>
</svg>
